Coordinates
version=1
nRows=7
nColumns=46
inDegrees=yes

Units are S.I. units (second, meters, Newtons, ...)
Angles are in degrees.

endheader
time	pelvis_tilt	pelvis_list	pelvis_rotation	pelvis_tx	pelvis_ty	pelvis_tz	bb_angle	bb_tx	bb_ty	bb_tz	hip_flexion_r	hip_adduction_r	hip_rotation_r	knee_angle_r	knee_angle_r_beta	ankle_angle_r	subtalar_angle_r	mtp_angle_r	crank_angle_r	hip_flexion_l	hip_adduction_l	hip_rotation_l	knee_angle_l	knee_angle_l_beta	ankle_angle_l	subtalar_angle_l	mtp_angle_l	crank_angle_l	lumbar_extension	lumbar_bending	lumbar_rotation	arm_flex_r	arm_add_r	arm_rot_r	elbow_flex_r	pro_sup_r	wrist_flex_r	wrist_dev_r	arm_flex_l	arm_add_l	arm_rot_l	elbow_flex_l	pro_sup_l	wrist_flex_l	wrist_dev_l
      2.50500000	     -9.06351702	      4.62683105	      7.27310339	      0.05773225	      1.17287927	     -0.21953916	      0.00000000	      0.50000000	      0.00000000	      0.25000000	     57.97238779	     -8.35604422	      6.67323264	     87.20640462	      1.52203889	    -28.86032720	     -8.02971145	      0.00000000	      0.00000000	     56.80799173	      4.01854116	      1.86694425	     56.72927467	      0.99011263	     11.80566042	     -4.04513697	      0.00000000	      0.00000000	    -65.80579445	      1.65164525	     -5.98583971	     89.54315534	    -12.95532833	     32.50129137	     48.16600318	     33.43386936	      0.00000000	      0.00000000	     89.82043386	    -11.68384801	     36.92731879	     52.12663504	     27.62957613	      0.00000000	      0.00000000
      2.51000000	     -8.91299537	      4.35033552	      7.13766593	      0.05819477	      1.17234243	     -0.22046323	      0.00000000	      0.50000000	      0.00000000	      0.25000000	     59.20417389	     -7.98427695	      6.81685019	     88.99914468	      1.55332811	    -29.95410173	     -7.97163423	      0.00000000	      0.00000000	     55.15728222	      3.50147003	      1.59892959	     54.43769155	      0.95011695	     11.19992859	     -3.06631942	      0.00000000	      0.00000000	    -65.75112261	      1.94311054	     -5.70615298	     89.54575060	    -12.73196229	     32.61728745	     48.00044956	     33.39087682	      0.00000000	      0.00000000	     89.81625265	    -11.87110853	     37.14521116	     51.85835446	     27.50847891	      0.00000000	      0.00000000
      2.51500000	     -8.69657587	      4.21410108	      6.82679025	      0.05880445	      1.17199181	     -0.22161501	      0.00000000	      0.50000000	      0.00000000	      0.25000000	     60.40280840	     -7.59167610	      7.19661720	     90.76183286	      1.58409282	    -30.85858390	     -8.03230526	      0.00000000	      0.00000000	     53.40499660	      2.95875547	      1.05028785	     52.19789269	      0.91102509	     10.59025373	     -2.03770192	      0.00000000	      0.00000000	    -65.73209103	      2.04495405	     -5.48687186	     89.55538683	    -12.45368034	     32.79482374	     47.75407464	     33.32473518	      0.00000000	      0.00000000	     89.81222539	    -12.05767700	     37.48293464	     51.41508891	     27.33990244	      0.00000000	      0.00000000
      2.52000000	     -8.46633777	      3.97002919	      6.54112837	      0.05943812	      1.17198611	     -0.22279962	      0.00000000	      0.50000000	      0.00000000	      0.25000000	     61.50134677	     -7.14638584	      7.43473053	     92.45168729	      1.61358634	    -31.23910710	     -8.07040660	      0.00000000	      0.00000000	     51.62454226	      2.42564665	      0.68363659	     49.91336513	      0.87115256	      9.77692125	     -1.15810682	      0.00000000	      0.00000000	    -65.73808330	      2.27569721	     -5.18833501	     89.56800040	    -12.14713826	     32.99465352	     47.46617670	     33.24425134	      0.00000000	      0.00000000	     89.80725325	    -12.30222473	     37.87669513	     50.93673426	     27.16647089	      0.00000000	      0.00000000
      2.52500000	     -8.38215511	      3.45842328	      6.32459110	      0.06004694	      1.17172275	     -0.22436018	      0.00000000	      0.50000000	      0.00000000	      0.25000000	     62.72027865	     -6.60682606	      7.41083805	     94.03941869	      1.64129748	    -31.46086488	     -8.07094597	      0.00000000	      0.00000000	     50.13280023	      1.82928461	      0.64685913	     47.80492405	      0.83435332	      8.81256342	     -0.47523259	      0.00000000	      0.00000000	    -65.59978325	      2.75394430	     -4.61413536	     89.58404522	    -11.90493420	     33.11313993	     47.39922402	     33.22394111	      0.00000000	      0.00000000	     89.79644573	    -12.55210379	     37.98886160	     50.69686779	     27.09409683	      0.00000000	      0.00000000
      2.53000000	     -7.90348461	      3.39754458	      5.73588924	      0.06107805	      1.17251499	     -0.22523258	      0.00000000	      0.50000000	      0.00000000	      0.25000000	     63.52514493	     -5.99658248	      7.88477324	     95.61272730	      1.66875690	    -31.54838519	     -8.16452393	      0.00000000	      0.00000000	     47.96678189	      1.18284172	     -0.14335228	     45.45348921	      0.79331304	      7.75774359	      0.52603908	      0.00000000	      0.00000000	    -65.82677471	      2.67561286	     -4.38923285	     89.59118126	    -11.46995094	     33.46667639	     46.87467636	     33.07049808	      0.00000000	      0.00000000	     89.79718556	    -12.88736864	     38.90602045	     49.80259001	     26.84910791	      0.00000000	      0.00000000
      2.53500000	     -7.86663285	      2.65963793	      5.44321767	      0.06173605	      1.17198605	     -0.22706341	      0.00000000	      0.50000000	      0.00000000	      0.25000000	     64.80455975	     -5.32467268	      7.65778494	     97.17442908	      1.69601374	    -31.33883780	     -8.18802828	      0.00000000	      0.00000000	     46.70723315	      0.46765444	      0.12741381	     43.75403471	      0.76365197	      6.78889399	      1.09353517	      0.00000000	      0.00000000	    -65.61092085	      3.28358410	     -3.63982062	     89.60615792	    -11.16454104	     33.60338460	     46.82350626	     33.05280240	      0.00000000	      0.00000000	     89.78250635	    -13.18306585	     39.01495560	     49.55891300	     26.78929711	      0.00000000	      0.00000000
